<svg width="20" height="20" viewBox="0 0 20 20" fill="none" xmlns="http://www.w3.org/2000/svg">
<path d="M15.8264 4.50952L14.2539 6.08203L15.0125 6.8406L16.585 5.26809L15.8264 4.50952Z" fill="#A7B7C6"/>
<path d="M16.4175 5.86078L15.2354 4.67861C15.0381 4.48133 15.0381 4.16147 15.2354 3.96419L15.284 3.91554C15.4813 3.71826 15.8012 3.71826 15.9984 3.91554L17.1806 5.09771C17.3779 5.29499 17.3779 5.61485 17.1806 5.81213L17.132 5.86078C16.9347 6.05806 16.6148 6.05806 16.4175 5.86078Z" fill="#E4E9F4"/>
<path d="M17.1564 5.07262L16.6736 4.58984C16.8843 4.80055 16.8843 5.1422 16.6736 5.3529C16.4629 5.5636 16.1213 5.56364 15.9105 5.35293L16.3933 5.83571C16.604 6.04645 16.9457 6.04645 17.1564 5.83571C17.3671 5.62498 17.3671 5.28336 17.1564 5.07262Z" fill="#CDD2DF"/>
<path d="M10.5005 2.50195H9.42773V4.55813H10.5005V2.50195Z" fill="#A7B7C6"/>
<path d="M10.803 3.03705H9.12529C8.84792 3.03705 8.62305 2.81218 8.62305 2.53481V1.92998C8.62305 1.6526 8.84792 1.42773 9.12529 1.42773H10.803C11.0804 1.42773 11.3053 1.6526 11.3053 1.92998V2.53481C11.3053 2.81218 11.0804 3.03705 10.803 3.03705Z" fill="#E4E9F4"/>
<path d="M10.7688 1.42773H9.69592C9.99217 1.42773 10.2323 1.6679 10.2323 1.96415V2.50057C10.2323 2.79682 9.99217 3.03699 9.69592 3.03699H10.7688C11.065 3.03699 11.3052 2.79682 11.3052 2.50057V1.96419C11.3052 1.6679 11.065 1.42773 10.7688 1.42773Z" fill="#CDD2DF"/>
<path d="M15.2471 16.3924C18.149 13.4906 18.1521 8.78889 15.2542 5.89095C12.3562 2.993 7.65457 2.99618 4.75271 5.89805C1.85084 8.79992 1.84766 13.5016 4.7456 16.3995C7.64355 19.2975 12.3452 19.2943 15.2471 16.3924Z" fill="#FFC13F"/>
<path d="M15.2543 5.89171C13.6568 4.29428 11.5114 3.57879 9.42139 3.74393C10.248 4.13842 11.0228 4.67729 11.7073 5.36175C14.942 8.59645 14.9384 13.8445 11.6993 17.0835C11.0914 17.6915 10.4126 18.1854 9.68972 18.5654C11.6905 18.6458 13.7185 17.922 15.2472 16.3934C18.1491 13.4914 18.1522 8.78968 15.2543 5.89171Z" fill="#FF9416"/>
<path d="M10.0307 17.1312C13.3391 17.1312 16.0211 14.4492 16.0211 11.1408C16.0211 7.83239 13.3391 5.15039 10.0307 5.15039C6.72228 5.15039 4.04028 7.83239 4.04028 11.1408C4.04028 14.4492 6.72228 17.1312 10.0307 17.1312Z" fill="#E4E9F4"/>
<path d="M11.7446 5.40039C14.8544 8.54992 14.9237 13.5744 11.9552 16.8156C14.3194 16.014 16.0208 13.7764 16.0208 11.1414C16.0208 8.42874 14.2176 6.13765 11.7446 5.40039Z" fill="#CDD2DF"/>
<path d="M9.96416 10.7612C9.81603 10.7612 9.69592 10.6412 9.69592 10.493V7.48893C9.69592 7.34077 9.81603 7.2207 9.96416 7.2207C10.1123 7.2207 10.2324 7.34077 10.2324 7.48893V10.493C10.2324 10.6412 10.1123 10.7612 9.96416 10.7612Z" fill="#7A6CF7"/>
<path d="M9.99988 11.9509C10.4442 11.9509 10.8045 11.5907 10.8045 11.1464C10.8045 10.702 10.4442 10.3418 9.99988 10.3418C9.55553 10.3418 9.19531 10.702 9.19531 11.1464C9.19531 11.5907 9.55553 11.9509 9.99988 11.9509Z" fill="#555E6B"/>
<path d="M13.7079 7.41263C13.7602 7.46503 13.8289 7.49122 13.8975 7.49122C13.9661 7.49122 14.0348 7.46503 14.0871 7.41267L14.4272 7.07256C14.3057 6.94127 14.1786 6.81531 14.0458 6.69531L13.7078 7.03331C13.6031 7.13808 13.6031 7.3079 13.7079 7.41263Z" fill="#555E6B"/>
<path d="M15.252 11.1042C15.252 11.2523 15.3721 11.3724 15.5202 11.3724H16.016C16.0189 11.2952 16.0209 11.2178 16.0209 11.1399C16.0209 11.038 16.0183 10.9367 16.0133 10.8359H15.5202C15.3721 10.836 15.252 10.956 15.252 11.1042Z" fill="#555E6B"/>
<path d="M10.0307 5.91928C10.1788 5.91928 10.2989 5.79921 10.2989 5.65105V5.15665C10.2099 5.15273 10.1206 5.15039 10.0307 5.15039C9.94075 5.15039 9.85141 5.15273 9.76245 5.15665V5.65105C9.76245 5.79921 9.88255 5.91928 10.0307 5.91928Z" fill="#555E6B"/>
<path d="M4.61258 11.3724C4.76071 11.3724 4.88081 11.2523 4.88081 11.1042C4.88081 10.956 4.76071 10.8359 4.61258 10.8359H4.07616C4.06666 10.8359 4.05725 10.8365 4.04797 10.8374C4.04298 10.9377 4.04041 11.0385 4.04041 11.1399C4.04041 11.2172 4.04235 11.2939 4.04526 11.3704C4.05541 11.3716 4.06572 11.3724 4.0762 11.3724L4.61258 11.3724Z" fill="#555E6B"/>
<path d="M5.95957 15.5346C5.97196 15.5259 5.98388 15.5163 5.99493 15.5052L6.37425 15.1258C6.47901 15.0211 6.47901 14.8513 6.37425 14.7465C6.26952 14.6418 6.09966 14.6418 5.99493 14.7465L5.61561 15.1258C5.60523 15.1362 5.59619 15.1473 5.58789 15.1589C5.70622 15.2896 5.83033 15.4148 5.95957 15.5346Z" fill="#555E6B"/>
<path d="M14.4856 15.145L14.1124 14.7719C14.0077 14.6672 13.8378 14.6672 13.7331 14.7719C13.6283 14.8766 13.6283 15.0465 13.7331 15.1512L14.1093 15.5274C14.2404 15.4056 14.366 15.2781 14.4856 15.145Z" fill="#555E6B"/>
<path d="M5.64404 7.06179L6.02028 7.43802C6.07265 7.49039 6.14129 7.51657 6.20993 7.51657C6.27856 7.51657 6.3472 7.49039 6.39957 7.43802C6.50433 7.33326 6.50433 7.16344 6.39957 7.05867L6.02644 6.68555C5.89342 6.80518 5.76588 6.9308 5.64404 7.06179Z" fill="#555E6B"/>
<path d="M10.2971 17.1252C10.2982 17.1155 10.2988 17.1057 10.2988 17.0957V16.5592C10.2988 16.4111 10.1787 16.291 10.0306 16.291C9.88243 16.291 9.76233 16.4111 9.76233 16.5592V17.0957C9.76233 17.1057 9.76297 17.1155 9.76404 17.1252C9.85243 17.1291 9.94119 17.1314 10.0306 17.1314C10.1199 17.1314 10.2087 17.1291 10.2971 17.1252Z" fill="#555E6B"/>
</svg>
