<svg width="32" height="32" viewBox="0 0 32 32" fill="none" xmlns="http://www.w3.org/2000/svg">
<circle cx="16" cy="15.9998" r="13.3333" fill="#F3BA2F"/>
<g clip-path="url(#clip0_1362_31739)">
<path d="M12.3749 14.5104L16 10.8855L19.6269 14.5123L21.7363 12.403L16 6.6665L10.2656 12.4011L12.3749 14.5104ZM6.66675 15.9995L8.77616 13.8901L10.8854 15.9994L8.77604 18.1088L6.66675 15.9995ZM12.3749 17.4893L16 21.1142L19.6268 17.4875L21.7373 19.5957L21.7363 19.5968L16 25.3332L10.2655 19.5988L10.2625 19.5958L12.3749 17.4893ZM21.1149 16.0007L23.2243 13.8913L25.3336 16.0006L23.2242 18.11L21.1149 16.0007Z" fill="white"/>
<path d="M18.1393 15.9988H18.1402L15.9998 13.8584L14.418 15.4402H14.4179L14.2362 15.622L13.8614 15.9969L13.8584 15.9998L13.8614 16.0029L15.9998 18.1414L18.1402 16.001L18.1412 15.9998L18.1393 15.9988Z" fill="white"/>
</g>
<defs>
<clipPath id="clip0_1362_31739">
<rect width="18.6667" height="18.6667" fill="white" transform="translate(6.66663 6.6665)"/>
</clipPath>
</defs>
</svg>
