<svg width="38" height="38" viewBox="0 0 38 38" fill="none" xmlns="http://www.w3.org/2000/svg">
<circle cx="19" cy="19.0003" r="15.8333" fill="#F3BA2F"/>
<g clip-path="url(#clip0_1349_1005)">
<path d="M14.6952 17.2316L19 12.927L23.307 17.2339L25.8118 14.729L19 7.91699L12.1904 14.7268L14.6952 17.2316ZM7.91675 19L10.4217 16.4951L12.9264 18.9998L10.4215 21.5047L7.91675 19ZM14.6952 20.769L19 25.0737L23.3069 20.7669L25.813 23.2704L25.8118 23.2717L19 30.0837L12.1902 23.2741L12.1867 23.2705L14.6952 20.769ZM25.0739 19.0014L27.5788 16.4965L30.0836 19.0012L27.5787 21.5061L25.0739 19.0014Z" fill="white"/>
<path d="M21.5403 18.9987H21.5414L18.9997 16.457L17.1213 18.3354H17.1212L16.9054 18.5513L16.4603 18.9965L16.4568 19L16.4603 19.0036L18.9997 21.5431L21.5414 19.0014L21.5427 19L21.5403 18.9987Z" fill="white"/>
</g>
<defs>
<clipPath id="clip0_1349_1005">
<rect width="22.1667" height="22.1667" fill="white" transform="translate(7.91663 7.91699)"/>
</clipPath>
</defs>
</svg>
