<svg width="24" height="24" viewBox="0 0 24 24" fill="none" xmlns="http://www.w3.org/2000/svg">
<circle cx="12" cy="12" r="10" fill="#F3BA2F"/>
<g clip-path="url(#clip0_1257_22814)">
<path d="M9.28123 10.8829L12 8.16421L14.7203 10.8843L16.3023 9.30234L12 5L7.69929 9.30094L9.28123 10.8829ZM5.00012 11.9998L6.58218 10.4177L8.16413 11.9997L6.58209 13.5817L5.00012 11.9998ZM9.28123 13.1171L12 15.8358L14.7202 13.1157L16.303 14.6969L16.3023 14.6977L12 19L7.69915 14.6992L7.69691 14.697L9.28123 13.1171ZM15.8362 12.0007L17.4183 10.4186L19.0002 12.0006L17.4182 13.5826L15.8362 12.0007Z" fill="white"/>
<path d="M13.6045 11.9998H13.6052L12 10.3945L10.8136 11.5809H10.8135L10.6772 11.7172L10.3961 11.9984L10.3939 12.0006L10.3961 12.0029L12 13.6068L13.6052 12.0015L13.606 12.0006L13.6045 11.9998Z" fill="white"/>
</g>
<defs>
<clipPath id="clip0_1257_22814">
<rect width="14" height="14" fill="white" transform="translate(5 5)"/>
</clipPath>
</defs>
</svg>
