<svg width="38" height="38" viewBox="0 0 38 38" fill="none" xmlns="http://www.w3.org/2000/svg">
<circle cx="19.0001" cy="18.9994" r="15.8333" fill="#F3BA2F"/>
<g clip-path="url(#clip0_1271_53004)">
<path d="M14.6954 17.2307L19.0002 12.926L23.3072 17.2329L25.8121 14.7281L19.0002 7.91602L12.1907 14.7258L14.6954 17.2307ZM7.91699 18.999L10.4219 16.4941L12.9267 18.9989L10.4218 21.5037L7.91699 18.999ZM14.6954 20.768L19.0002 25.0727L23.3071 20.7659L25.8133 23.2694L25.8121 23.2708L19.0002 30.0827L12.1905 23.2731L12.1869 23.2695L14.6954 20.768ZM25.0742 19.0004L27.5791 16.4955L30.0838 19.0002L27.5789 21.5051L25.0742 19.0004Z" fill="white"/>
<path d="M21.5406 18.9987H21.5417L19 16.457L17.1216 18.3354H17.1215L16.9057 18.5513L16.4606 18.9965L16.457 19L16.4606 19.0036L19 21.5431L21.5417 19.0014L21.5429 19L21.5406 18.9987Z" fill="white"/>
</g>
<defs>
<clipPath id="clip0_1271_53004">
<rect width="22.1667" height="22.1667" fill="white" transform="translate(7.91675 7.91602)"/>
</clipPath>
</defs>
</svg>
