<svg width="20" height="20" viewBox="0 0 20 20" fill="none" xmlns="http://www.w3.org/2000/svg">
<path d="M4.90524 7.05859C4.57721 7.62707 3.02048 8.86862 3.01721 8.87156C3.01943 8.8749 4.08777 10.1657 4.1757 10.8061C6.45399 10.3779 8.54281 12.1263 8.54281 14.4253C8.54281 14.8321 8.47661 15.242 8.33754 15.64C8.78297 15.7704 9.65094 16.4646 9.99874 16.7631L10.4889 11.9108L9.99874 7.05863C8.08173 7.05859 6.69076 7.05859 4.90524 7.05859Z" fill="#AD7FFA"/>
<path d="M11.66 15.6399C11.17 14.2376 11.5593 12.607 12.7877 11.5898C13.5964 10.9202 14.6885 10.593 15.8218 10.8061C15.9098 10.1657 17.0651 8.87486 17.0675 8.87156C17.0641 8.86875 15.4203 7.62707 15.0923 7.05859C13.2989 7.05859 11.9226 7.05859 9.99878 7.05859V16.763H9.99881L9.99884 16.7631C10.0021 16.7606 11.1187 15.7984 11.66 15.6399Z" fill="#914EFA"/>
<path d="M5.84007 14.1582L5.84004 14.1582L5.83997 14.1583L5.83994 14.1583L5.83991 14.1583C5.37844 14.2639 4.85103 14.3846 4.38956 14.4901C4.29967 14.9359 4.19694 15.4454 4.10706 15.8912C4.17705 15.9485 4.60643 16.4184 5.3686 16.9295C6.7633 17.8646 8.37251 18.3331 9.99874 18.3328L10.4889 17.1052L9.99874 15.8777C8.46495 15.8784 6.96899 15.2872 5.84007 14.1582Z" fill="#FFC205"/>
<path d="M15.8904 15.8912C15.8069 15.4015 15.735 14.9798 15.6515 14.4901C15.0553 14.3577 14.9815 14.3413 14.1575 14.1583L14.1575 14.1583L14.1575 14.1583L14.1574 14.1582L14.1574 14.1582C13.0303 15.2853 11.5309 15.8771 9.99878 15.8777V18.3329C12.1952 18.3324 14.3039 17.4777 15.8904 15.8912Z" fill="#FF9E23"/>
<path d="M8.47986 9.9994C8.47986 10.8402 9.15937 11.5183 9.99875 11.5183L10.4889 9.9994L9.99875 8.48047C9.16156 8.48047 8.47986 9.15596 8.47986 9.9994Z" fill="#F9F9F9"/>
<path d="M9.99878 8.48047V11.5183C10.8395 11.5183 11.5177 10.839 11.5177 9.9994C11.5177 9.15779 10.8377 8.48047 9.99878 8.48047Z" fill="#D8F1FB"/>
<path d="M9.61732 10.3815C9.71907 10.4832 9.85568 10.5392 9.9987 10.5392L10.4888 10L9.9987 9.46094C9.92845 9.46094 9.85816 9.47456 9.79223 9.50175C9.43728 9.64826 9.34638 10.1105 9.61732 10.3815Z" fill="#D8F1FB"/>
<path d="M9.99878 9.46094V10.5392C10.297 10.5392 10.5379 10.2983 10.5379 10.0001C10.5379 9.70227 10.2974 9.46094 9.99878 9.46094Z" fill="#9DDFF6"/>
<path d="M12.9395 9.71244C13.3223 9.71244 13.6326 9.40211 13.6326 9.0193C13.6326 8.6365 13.3223 8.32617 12.9395 8.32617C12.5567 8.32617 12.2463 8.6365 12.2463 9.0193C12.2463 9.40211 12.5567 9.71244 12.9395 9.71244Z" fill="#D8F1FB"/>
<path d="M6.56787 8.5293H7.54812V9.50954H6.56787V8.5293Z" fill="#F9F9F9"/>
<path d="M10.1355 1.66722C7.88614 1.62922 5.72276 2.4919 4.10706 4.10765C4.31209 5.27323 4.16277 4.4244 4.36777 5.58972C4.83541 5.66938 5.37229 5.76083 5.8399 5.8405L5.83994 5.84053L5.83997 5.84056L5.84004 5.84063L5.84007 5.84066C6.94974 4.73099 8.43926 4.12085 9.99873 4.12085L10.4889 2.89407L9.99873 1.66725C10.0021 1.66722 10.1402 1.66722 10.1355 1.66722Z" fill="#FFC205"/>
<path d="M14.1575 5.84131L14.1575 5.84128L14.1576 5.84125C14.6253 5.7358 15.162 5.61484 15.6297 5.5094C15.7208 5.01986 15.7993 4.59793 15.8905 4.1084C14.3361 2.55405 12.2742 1.70411 10.1356 1.66797C10.1323 1.66797 9.99407 1.66797 9.99877 1.66797V4.12156C11.5555 4.12156 13.0458 4.72977 14.1574 5.84134L14.1575 5.84131H14.1575Z" fill="#FF9E23"/>
<path d="M15.8904 4.10742C15.4238 4.57402 14.4293 5.56848 14.1575 5.84027L14.1574 5.84034L14.1573 5.84037C14.1574 5.8404 14.1574 5.8404 14.1574 5.84044C16.4504 8.13346 16.4506 11.8646 14.1574 14.1578H14.1574C14.3972 14.3976 15.646 15.6463 15.8904 15.8908C17.4641 14.3171 18.3309 12.2248 18.3309 9.99907C18.3308 7.77362 17.4642 5.68121 15.8904 4.10742Z" fill="#FFC205"/>
<path d="M5.8401 14.1578C5.84006 14.1578 5.84006 14.1578 5.8401 14.1578C3.54697 11.8647 3.54697 8.13353 5.84006 5.84044C5.62144 5.62181 4.31829 4.31867 4.10705 4.10742C2.5333 5.68114 1.66663 7.77355 1.66663 9.99914C1.66663 12.2247 2.5333 14.3171 4.10705 15.8908C4.15933 15.8385 3.95269 16.0451 5.8401 14.1578Z" fill="#FDDE3C"/>
</svg>
