<svg width="24" height="24" viewBox="0 0 24 24" fill="none" xmlns="http://www.w3.org/2000/svg">
<path d="M11.1667 13.459C11.1667 13.1148 10.885 12.834 10.5417 12.834H7.41667V15.334C7.41667 15.794 7.04333 16.1673 6.58333 16.1673C6.12333 16.1673 5.75 15.794 5.75 15.334V12.834H2.625C2.28083 12.834 2 13.1148 2 13.459V21.3756C2 21.7198 2.28083 22.0006 2.625 22.0006H10.5417C10.885 22.0006 11.1667 21.7198 11.1667 21.3756V13.459Z" fill="#727272"/>
<path d="M21.9999 13.459C21.9999 13.1148 21.7183 12.834 21.3749 12.834H18.2499V15.334C18.2499 15.794 17.8766 16.1673 17.4166 16.1673C16.9566 16.1673 16.5833 15.794 16.5833 15.334V12.834H13.4583C13.1141 12.834 12.8333 13.1148 12.8333 13.459V21.3756C12.8333 21.7198 13.1141 22.0006 13.4583 22.0006H21.3749C21.7183 22.0006 21.9999 21.7198 21.9999 21.3756V13.459Z" fill="#727272"/>
<path d="M16.5834 2.625C16.5834 2.28167 16.3018 2 15.9584 2H12.8334V4.5C12.8334 4.96 12.4601 5.33333 12.0001 5.33333C11.5401 5.33333 11.1668 4.96 11.1668 4.5V2H8.04175C7.69758 2 7.41675 2.28167 7.41675 2.625V10.5417C7.41675 10.8858 7.69758 11.1667 8.04175 11.1667H15.9584C16.3018 11.1667 16.5834 10.8858 16.5834 10.5417V2.625Z" fill="#727272"/>
</svg>
