<svg width="24" height="24" viewBox="0 0 24 24" fill="none" xmlns="http://www.w3.org/2000/svg">
<path d="M21.9364 10.8486C21.8939 10.7469 21.833 10.6544 21.7555 10.5769L19.2564 8.07773C18.9306 7.75273 18.4039 7.75273 18.0781 8.07773C17.7523 8.40355 17.7523 8.93105 18.0781 9.25605L19.1556 10.3335H14.5006C14.0397 10.3335 13.6672 10.7069 13.6672 11.1669C13.6672 11.6269 14.0397 12.0002 14.5006 12.0002H19.1555L18.078 13.0777C17.7522 13.4035 17.7522 13.931 18.078 14.256C18.2405 14.4193 18.4538 14.5002 18.6672 14.5002C18.8806 14.5002 19.0939 14.4193 19.2564 14.256L21.7555 11.7568C21.833 11.6801 21.8939 11.5876 21.9364 11.4851C22.0205 11.2819 22.0205 11.0519 21.9364 10.8486Z" fill="#FE283F"/>
<path d="M16.1666 13.6666C15.7058 13.6666 15.3333 14.0399 15.3333 14.4999V18.6666H12V5.33331C12 4.96581 11.7583 4.64081 11.4058 4.53499L8.51161 3.66667H15.3333V7.83333C15.3333 8.29333 15.7058 8.66665 16.1666 8.66665C16.6274 8.66665 16.9999 8.29333 16.9999 7.83333V2.83336C16.9999 2.37332 16.6274 2 16.1666 2H2.83332C2.80332 2 2.77664 2.0125 2.7475 2.01582C2.70832 2.02 2.6725 2.02664 2.635 2.03582C2.5475 2.05832 2.46832 2.0925 2.39418 2.13914C2.37586 2.15082 2.35336 2.15164 2.33586 2.16496C2.32914 2.17 2.32664 2.17918 2.31996 2.18418C2.22914 2.25582 2.15332 2.34332 2.09832 2.4475C2.08664 2.47 2.08414 2.49418 2.075 2.5175C2.04832 2.58082 2.01918 2.6425 2.00918 2.7125C2.005 2.7375 2.0125 2.76082 2.01168 2.785C2.01086 2.80168 2 2.81668 2 2.83332V19.4999C2 19.8974 2.28082 20.2391 2.67 20.3166L11.0033 21.9833C11.0575 21.995 11.1125 22 11.1666 22C11.3574 22 11.5449 21.9341 11.6949 21.8108C11.8874 21.6525 11.9999 21.4166 11.9999 21.1666V20.3333H16.1666C16.6274 20.3333 16.9999 19.96 16.9999 19.5V14.4999C16.9999 14.0399 16.6274 13.6666 16.1666 13.6666Z" fill="#FE283F"/>
</svg>
