<svg width="24" height="24" viewBox="0 0 24 24" fill="none" xmlns="http://www.w3.org/2000/svg">
<path d="M16.5203 6.4001C16.6945 6.03506 16.7999 5.63138 16.7999 5.2001C16.7999 3.65402 15.5466 2.40002 13.9998 2.40002C13.2155 2.40002 12.5085 2.72498 11.9999 3.24458C11.4913 2.72498 10.7843 2.40002 9.99998 2.40002C8.45318 2.40002 7.1999 3.65402 7.1999 5.2001C7.1999 5.63138 7.30526 6.03506 7.4795 6.4001H2.3999V9.60002H21.5999V6.4001H16.5203ZM13.9998 4.0001C14.6617 4.0001 15.1998 4.53818 15.1998 5.2001C15.1998 5.86178 14.6617 6.4001 13.9998 6.4001H12.7998V5.2001C12.7998 4.53818 13.3381 4.0001 13.9998 4.0001ZM8.79998 5.2001C8.79998 4.53818 9.33806 4.0001 9.99998 4.0001C10.6617 4.0001 11.2 4.53818 11.2 5.2001V6.4001H9.99998C9.33806 6.4001 8.79998 5.86178 8.79998 5.2001Z" fill="#727272"/>
<path d="M4 11.2001H11.2V21.6H4V11.2001Z" fill="#727272"/>
<path d="M12.7998 11.2001H19.9998V21.6H12.7998V11.2001Z" fill="#727272"/>
</svg>
