<svg width="24" height="24" viewBox="0 0 24 24" fill="none" xmlns="http://www.w3.org/2000/svg">
<path d="M17.1745 15.1824C18.1103 13.8268 18.6595 12.1834 18.6595 10.4112C18.6595 5.76596 14.8945 2.00012 10.2485 2.00012C5.60244 2.00012 1.8374 5.76592 1.8374 10.4111C1.8374 15.0564 5.60244 18.8222 10.2485 18.8222C12.1876 18.8222 13.9721 18.1643 15.3947 17.0621L20.3326 22L22.1626 20.1703L17.1745 15.1824ZM10.2485 17.0106C6.60949 17.0106 3.649 14.0502 3.649 10.4111C3.649 6.77217 6.60941 3.81168 10.2485 3.81168C13.8875 3.81168 16.8479 6.77209 16.8479 10.4111C16.8479 14.0502 13.8874 17.0106 10.2485 17.0106Z" fill="#727272"/>
<path d="M9.44899 5.2345C7.3499 5.8375 5.70082 7.48658 5.09753 9.58571L6.34158 9.9426C6.81934 8.2751 8.13845 6.95579 9.80587 6.47803L9.44899 5.2345Z" fill="#727272"/>
</svg>
