<svg width="20" height="20" viewBox="0 0 20 20" fill="none" xmlns="http://www.w3.org/2000/svg">
<path d="M11.8899 1.66602L2.83142 6.86189V15.0325L8.54762 18.3327L17.5989 13.1422L17.6061 4.96624L11.8899 1.66602Z" fill="#D2C5C2"/>
<path d="M10.6123 10.584L9.61005 11.1627L9.60535 11.6089L10.6123 12.1904L10.9704 11.3247L10.6123 10.584Z" fill="#3E322E"/>
<path d="M10.6124 13.8086L10.8402 14.6085L10.6124 15.5214L9.61011 14.9427V14.3873L10.6124 13.8086Z" fill="#3E322E"/>
<path d="M10.6123 8.964L13.4366 6.69731L15.6431 6.08594V14.2617L10.6123 17.1346V8.964Z" fill="#53433F"/>
<path d="M4.89612 5.66517L9.92694 2.78711L15.6667 6.07322L10.6123 8.96539L4.89612 5.66517Z" fill="#68544F"/>
<path d="M2.84446 8.9479L2.84433 8.94739L2.85272 8.94268C2.85272 8.94256 2.85285 8.94256 2.85298 8.94243L3.46511 8.58537C3.53276 8.54951 3.6196 8.5546 3.71434 8.60928C3.92999 8.73376 4.10471 9.06768 4.10471 9.35518C4.10471 9.51998 4.0471 9.63327 3.95746 9.67689L3.95797 9.67778L3.35016 10.0328L3.3499 10.0322C3.28238 10.0678 3.19566 10.0626 3.10119 10.0079C2.88566 9.88352 2.71082 9.54948 2.71082 9.2621C2.71082 9.10583 2.7627 8.99609 2.84446 8.9479Z" fill="#FDBF00"/>
<path d="M2.71082 9.26189C2.71082 9.54926 2.88566 9.8833 3.10119 10.0077C3.31684 10.1321 3.49156 10 3.49156 9.71265C3.49156 9.42515 3.31684 9.09124 3.10119 8.96676C2.88566 8.84227 2.71082 8.97451 2.71082 9.26189Z" fill="#FFDC48"/>
<path d="M2.84851 9.34053C2.84851 9.52656 2.96168 9.74285 3.10117 9.82334C3.24079 9.90396 3.35396 9.81838 3.35396 9.63235C3.35396 9.44619 3.24079 9.23003 3.10117 9.14941C2.96168 9.06892 2.84851 9.15449 2.84851 9.34053Z" fill="#FDBF00"/>
<path d="M4.5206 8.9479L4.52047 8.94739L4.52886 8.94268C4.52886 8.94256 4.52912 8.94256 4.52912 8.94243L5.14125 8.58537H5.14138C5.2089 8.54951 5.29575 8.5546 5.3906 8.60928C5.60614 8.73376 5.78085 9.06768 5.78085 9.35518C5.78085 9.51998 5.72337 9.63327 5.63373 9.67689L5.63411 9.67778L5.0263 10.0328L5.02605 10.0322C4.95853 10.0678 4.87193 10.0626 4.77746 10.0079C4.5618 9.88352 4.38708 9.54948 4.38708 9.2621C4.38708 9.10583 4.43896 8.99609 4.5206 8.9479Z" fill="#FDBF00"/>
<path d="M4.38708 9.26189C4.38708 9.54926 4.5618 9.8833 4.77733 10.0077C4.99299 10.1321 5.1677 10 5.1677 9.71265C5.1677 9.42515 4.99299 9.09124 4.77733 8.96676C4.5618 8.84227 4.38708 8.97451 4.38708 9.26189Z" fill="#FFDC48"/>
<path d="M4.52466 9.34053C4.52466 9.52656 4.63783 9.74285 4.77745 9.82334C4.91694 9.90396 5.03011 9.81838 5.03011 9.63235C5.03011 9.44619 4.91694 9.23003 4.77745 9.14941C4.63783 9.06892 4.52466 9.15449 4.52466 9.34053Z" fill="#FDBF00"/>
<path d="M6.65646 11.0825L6.65634 11.0822L6.66473 11.0774C6.66486 11.0773 6.66486 11.0772 6.66498 11.0772L7.27724 10.7201C7.34489 10.6843 7.43174 10.6894 7.52647 10.744C7.742 10.8685 7.91684 11.2024 7.91684 11.4899C7.91684 11.6547 7.85924 11.768 7.7696 11.8116L7.76998 11.8127L7.16217 12.1676L7.16191 12.167C7.09439 12.2025 7.0078 12.1973 6.91332 12.1428C6.69766 12.0183 6.52295 11.6844 6.52295 11.3969C6.52282 11.2406 6.5747 11.1309 6.65646 11.0825Z" fill="#FDBF00"/>
<path d="M6.52295 11.3967C6.52295 11.684 6.69766 12.018 6.91319 12.1425C7.12885 12.2669 7.30356 12.1348 7.30356 11.8474C7.30356 11.5599 7.12885 11.226 6.91319 11.1015C6.69766 10.9771 6.52295 11.1092 6.52295 11.3967Z" fill="#FFDC48"/>
<path d="M6.66052 11.4773C6.66052 11.6633 6.77369 11.8795 6.91318 11.9601C7.0528 12.0407 7.16597 11.9552 7.16597 11.7691C7.16597 11.583 7.0528 11.3668 6.91318 11.2862C6.77356 11.2056 6.66052 11.2912 6.66052 11.4773Z" fill="#FDBF00"/>
<path d="M5.04086 15.8092L5.04074 15.8087L5.04913 15.804C5.04926 15.8039 5.04926 15.8039 5.04938 15.8038L5.66151 15.4466L5.66164 15.4467C5.72916 15.4108 5.81601 15.4159 5.91087 15.4706C6.1264 15.5951 6.30124 15.929 6.30124 16.2164C6.30124 16.3812 6.24364 16.4946 6.15399 16.5382L6.15437 16.5391L5.54656 16.894L5.54631 16.8935C5.47879 16.929 5.3922 16.9237 5.29772 16.8692C5.08206 16.7447 4.90735 16.4108 4.90735 16.1234C4.90735 15.9672 4.95923 15.8574 5.04086 15.8092Z" fill="#FDBF00"/>
<path d="M4.90735 16.1232C4.90735 16.4106 5.08206 16.7445 5.29772 16.869C5.51325 16.9935 5.68809 16.8614 5.68809 16.574C5.68809 16.2865 5.51325 15.9526 5.29772 15.8281C5.08206 15.7036 4.90735 15.8357 4.90735 16.1232Z" fill="#FFDC48"/>
<path d="M5.04492 16.2019C5.04492 16.3879 5.15809 16.6041 5.29771 16.6847C5.4372 16.7653 5.55037 16.6797 5.55037 16.4937C5.55037 16.3075 5.4372 16.0914 5.29771 16.0108C5.15809 15.9303 5.04492 16.0157 5.04492 16.2019Z" fill="#FDBF00"/>
<path d="M2.63364 13.7272L2.63351 13.7268L2.64178 13.722C2.64191 13.7219 2.64203 13.7219 2.64216 13.7217L3.25429 13.3647C3.32194 13.3288 3.40879 13.3339 3.50352 13.3886C3.71905 13.5131 3.89389 13.847 3.89389 14.1345C3.89389 14.2993 3.83629 14.4126 3.74664 14.4562L3.74715 14.4571L3.13934 14.8121L3.13909 14.8116C3.07144 14.8471 2.98485 14.8418 2.89037 14.7873C2.67471 14.6628 2.5 14.3289 2.5 14.0414C2.5 13.8851 2.55188 13.7754 2.63364 13.7272Z" fill="#FDBF00"/>
<path d="M2.5 14.0412C2.5 14.3287 2.67471 14.6626 2.89037 14.7871C3.1059 14.9114 3.28074 14.7793 3.28074 14.4919C3.28074 14.2044 3.1059 13.8705 2.89037 13.7461C2.67471 13.6216 2.5 13.7538 2.5 14.0412Z" fill="#FFDC48"/>
<path d="M2.63757 14.1218C2.63757 14.3078 2.75074 14.5241 2.89036 14.6046C3.02985 14.6852 3.14302 14.5998 3.14302 14.4136C3.14302 14.2275 3.02985 14.0113 2.89036 13.9307C2.75074 13.8502 2.63757 13.9356 2.63757 14.1218Z" fill="#FDBF00"/>
<path d="M6.87827 16.8619L6.87814 16.8615L6.88653 16.8567C6.88666 16.8567 6.88666 16.8565 6.88679 16.8565L7.49892 16.4993L7.49905 16.4995C7.56657 16.4636 7.65342 16.4686 7.74828 16.5234C7.96381 16.6477 8.13865 16.9818 8.13865 17.2692C8.13865 17.4339 8.08105 17.5474 7.9914 17.591L7.99178 17.5919L7.38397 17.9468L7.38372 17.9463C7.3162 17.9817 7.2296 17.9765 7.13512 17.922C6.91947 17.7975 6.74475 17.4636 6.74475 17.1761C6.74462 17.0199 6.7965 16.9101 6.87827 16.8619Z" fill="#FDBF00"/>
<path d="M6.74463 17.1778C6.74463 17.4653 6.91947 17.7992 7.135 17.9237C7.35066 18.0482 7.52537 17.9161 7.52537 17.6286C7.52537 17.3412 7.35066 17.0073 7.135 16.8828C6.91947 16.7583 6.74463 16.8904 6.74463 17.1778Z" fill="#FFDC48"/>
<path d="M6.88232 17.2565C6.88232 17.4426 6.99549 17.6588 7.13498 17.7394C7.2746 17.8199 7.38777 17.7345 7.38777 17.5483C7.38777 17.3623 7.2746 17.1461 7.13498 17.0655C6.99549 16.9849 6.88232 17.0705 6.88232 17.2565Z" fill="#FDBF00"/>
<path d="M11.6204 8.39119V16.567L12.6227 15.9883V7.8125L12.1453 7.89274L11.6204 8.39119Z" fill="#3E322E"/>
<path d="M13.6329 7.24771V15.4118L14.6353 14.8331V6.66902L14.1274 6.63672L13.6329 7.24771Z" fill="#3E322E"/>
<path d="M6.9063 4.51172L12.6226 7.81207L11.6202 8.39076L5.90405 5.09054L6.9063 4.51172Z" fill="#53433F"/>
<path d="M8.91912 3.36914L14.6353 6.66936L13.6329 7.24805L7.91675 3.94783L8.91912 3.36914Z" fill="#53433F"/>
<path d="M12.1013 2.88477L12.3942 3.41539L12.1013 4.04214L11.0989 3.46346L12.1013 2.88477Z" fill="#3E322E"/>
<path d="M12.1012 2.88477L13.1136 3.4693L12.1012 4.04214V2.88477Z" fill="#53433F"/>
<path d="M15.6432 14.2628V6.08705L17.6061 4.9668L17.5989 13.1427L15.6432 14.2628Z" fill="#DFD7D5"/>
<path d="M2.88208 6.8278L4.89611 5.66406L10.6123 8.96428L8.59828 10.128L2.88208 6.8278Z" fill="#EDE9E8"/>
<path d="M7.42761 7.12673L12.469 4.24219L12.9308 4.5129L7.90814 7.40419L7.42761 7.12673Z" fill="#FFDC48"/>
<path d="M10.6123 12.7688L15.6431 9.85742V10.4L10.6123 13.3058V12.7688Z" fill="#FFDC48"/>
<path d="M10.6123 10.5838V8.96484L9.61005 9.54353L8.59827 10.1286V18.2992L9.61005 17.7193L10.6123 17.1406V15.5218L9.61005 16.1005V14.3877L10.6123 13.809V12.1902L9.61005 12.7687V11.1625L10.6123 10.5838Z" fill="#DFD7D5"/>
<path d="M17.6061 4.96624L11.8899 1.66602L10.9294 2.20758L9.927 2.78627L11.0989 3.46287L12.1013 2.88418L13.1137 3.46871L12.1013 4.04155L13.2933 4.71815L14.2855 4.14531L15.4994 4.84607L15.4728 4.8312L14.4704 5.40989L15.6423 6.08649L16.6451 5.50754L16.6456 5.5078L17.6061 4.96624Z" fill="#EDE9E8"/>
<path d="M14.2855 4.14453L14.6111 4.74115L14.2855 5.30191L13.2933 4.71737L14.2855 4.14453Z" fill="#3E322E"/>
<path d="M10.6123 12.1889L9.60535 11.6074V12.7675L10.6123 12.1889Z" fill="#D2C5C2"/>
<path d="M10.6124 15.522L9.61011 14.9434V16.1007L10.6124 15.522Z" fill="#D2C5C2"/>
<path d="M14.2855 4.14453L15.4728 4.83041L14.4704 5.4091L14.2855 5.30191V4.14453Z" fill="#53433F"/>
</svg>
