<svg width="24" height="24" viewBox="0 0 24 24" fill="none" xmlns="http://www.w3.org/2000/svg">
<path d="M12 22C17.5228 22 22 17.5228 22 12C22 6.47715 17.5228 2 12 2C6.47715 2 2 6.47715 2 12C2 17.5228 6.47715 22 12 22Z" fill="#FF9100"/>
<path d="M22 12C22 6.49867 17.5013 2 12 2V22C17.5013 22 22 17.5013 22 12Z" fill="#FF9100"/>
<path d="M12 19.6172C16.2069 19.6172 19.6172 16.2069 19.6172 12C19.6172 7.79314 16.2069 4.38281 12 4.38281C7.79314 4.38281 4.38281 7.79314 4.38281 12C4.38281 16.2069 7.79314 19.6172 12 19.6172Z" fill="#FED843"/>
<path d="M19.6172 12C19.6172 7.8 16.2 4.38281 12 4.38281V19.6172C16.2 19.6172 19.6172 16.2 19.6172 12Z" fill="#FED843"/>
<path d="M17.0153 10.3714C16.9461 10.1591 16.763 10.0046 16.5421 9.97254L13.7669 9.56914L12.5253 7.0543C12.4268 6.85402 12.2134 6.75391 12 6.75391C11.7866 6.75391 11.5731 6.85402 11.4747 7.0543L10.233 9.56914L7.45785 9.97254C7.23699 10.0046 7.05386 10.1591 6.98464 10.3708C6.91597 10.5831 6.9732 10.8159 7.13285 10.9716L9.14128 12.9297L8.66749 15.694C8.62972 15.9137 8.72015 16.1358 8.90039 16.2668C9.08242 16.399 9.32203 16.4149 9.51722 16.3114L12 15.0068L14.4828 16.3114C14.6796 16.4155 14.9199 16.3989 15.0996 16.2668C15.2798 16.1357 15.3703 15.9137 15.3325 15.694L14.8581 12.9296L16.8671 10.9716C17.0268 10.816 17.084 10.5831 17.0153 10.3714Z" fill="#FF9100"/>
<path d="M15.0996 16.2668C15.2799 16.1358 15.3703 15.9137 15.3325 15.694L14.8581 12.9297L16.8672 10.9716C17.0268 10.816 17.084 10.5831 17.0154 10.3714C16.9461 10.1591 16.763 10.0046 16.5422 9.97254L13.767 9.56914L12.5253 7.0543C12.4268 6.85402 12.2134 6.75391 12 6.75391V15.0068L14.4828 16.3114C14.6796 16.4156 14.9199 16.399 15.0996 16.2668Z" fill="#FF9100"/>
</svg>
