<svg width="24" height="24" viewBox="0 0 24 24" fill="none" xmlns="http://www.w3.org/2000/svg">
<path d="M17.1745 15.1823C18.1103 13.8267 18.6595 12.1833 18.6595 10.4111C18.6595 5.76584 14.8945 2 10.2485 2C5.60244 2 1.8374 5.7658 1.8374 10.411C1.8374 15.0562 5.60244 18.8221 10.2485 18.8221C12.1876 18.8221 13.9721 18.1642 15.3947 17.062L20.3326 21.9999L22.1626 20.1702L17.1745 15.1823ZM10.2485 17.0105C6.60949 17.0105 3.649 14.0501 3.649 10.411C3.649 6.77205 6.60941 3.81156 10.2485 3.81156C13.8875 3.81156 16.8479 6.77197 16.8479 10.411C16.8479 14.0501 13.8874 17.0105 10.2485 17.0105Z" fill="#727272"/>
<path d="M9.44899 5.23438C7.3499 5.83738 5.70082 7.48646 5.09753 9.58559L6.34158 9.94247C6.81934 8.27497 8.13845 6.95566 9.80587 6.4779L9.44899 5.23438Z" fill="#727272"/>
</svg>
