<svg width="20" height="20" viewBox="0 0 20 20" fill="none" xmlns="http://www.w3.org/2000/svg">
<path d="M15.8914 4.94183C14.3166 3.36719 12.2244 2.5 9.99997 2.5C7.77559 2.5 5.6833 3.36719 4.10853 4.94186C3.91781 5.13258 3.91804 5.44186 4.10853 5.63239L5.5875 7.11146C5.77823 7.30218 6.08757 7.30199 6.2781 7.11143C7.27276 6.1165 8.59457 5.56855 9.99997 5.56855C11.4054 5.56855 12.7272 6.1165 13.7219 7.11139C13.8134 7.20296 13.9377 7.25446 14.0672 7.25446C14.2782 7.25446 14.4023 7.12162 14.4124 7.11143L15.8914 5.63236C16.0821 5.44167 16.0819 5.13236 15.8914 4.94183Z" fill="#FFD600"/>
<path d="M15.8914 4.94183C14.3167 3.36719 12.2244 2.5 10 2.5V5.56859C11.4054 5.56859 12.7272 6.11654 13.7219 7.11143C13.8135 7.20299 13.9377 7.25449 14.0672 7.25449C14.2782 7.25449 14.4023 7.12165 14.4125 7.11146L15.8914 5.63239C16.0822 5.44167 16.082 5.13236 15.8914 4.94183Z" fill="#FF8A00"/>
<path d="M6.27802 14.5547C5.8579 14.1346 4.74254 12.8923 4.73521 10.8318C4.73547 9.42699 5.28336 8.1056 6.27802 7.11104L4.10852 4.94141C2.53385 6.51595 1.66663 8.60827 1.66663 10.8329C1.66663 13.0575 2.53385 15.1498 4.10852 16.7243C4.20387 16.8197 4.3288 16.8673 4.45377 16.8673C4.57874 16.8673 4.7037 16.8197 4.79905 16.7243L6.27802 15.2452C6.46871 15.0546 6.46871 14.7454 6.27802 14.5547Z" fill="#F8EC84"/>
<path d="M13.7219 14.5547C14.142 14.1346 15.2574 12.8923 15.2647 10.8318C15.2644 9.42699 14.7165 8.1056 13.7219 7.11104L15.8914 4.94141C17.466 6.51595 18.3333 8.60827 18.3333 10.8329C18.3333 13.0575 17.466 15.1498 15.8914 16.7243C15.796 16.8197 15.6711 16.8673 15.5461 16.8673C15.4212 16.8673 15.2962 16.8197 15.2008 16.7243L13.7219 15.2452C13.5312 15.0546 13.5312 14.7454 13.7219 14.5547Z" fill="#FF7A00"/>
<path d="M4.73521 10.8318C4.73547 9.42699 5.28336 8.1056 6.27802 7.11104L4.10852 4.94141C2.53385 6.51595 1.66663 8.60827 1.66663 10.8329L4.73521 10.8318Z" fill="#FBE200"/>
<path d="M13.7219 14.5549C14.142 14.1348 15.2574 12.8925 15.2647 10.832L18.3333 10.8331C18.3333 13.0577 17.466 15.15 15.8914 16.7245C15.796 16.8199 15.6711 16.8675 15.5461 16.8675C15.4212 16.8675 15.2962 16.8199 15.2008 16.7245L13.7219 15.2454C13.5312 15.0548 13.5312 14.7456 13.7219 14.5549Z" fill="#FF4F18"/>
<path d="M8.91509 9.74749C8.31688 10.3457 8.31688 11.3191 8.91509 11.9173C9.67082 12.673 13.3848 15.0445 13.8059 15.3124C13.9989 15.4352 14.2514 15.4075 14.4133 15.2457C14.5751 15.0839 14.6028 14.8314 14.48 14.6383C14.2121 14.2173 11.8406 10.5032 11.0849 9.74749C10.4867 9.14928 9.51333 9.14928 8.91509 9.74749Z" fill="#0AAEE4"/>
<path d="M8.91504 9.74749L14.4132 15.2457C14.575 15.0839 14.6028 14.8313 14.4799 14.6382C14.212 14.2172 11.8406 10.5032 11.0848 9.74746C10.4867 9.14928 9.51328 9.14928 8.91504 9.74749Z" fill="#0877E7"/>
</svg>
