<svg width="32" height="32" viewBox="0 0 32 32" fill="none" xmlns="http://www.w3.org/2000/svg">
<path d="M5.00165 8.44087C4.57554 8.44087 4.22894 8.09427 4.22894 7.66821H2.66675V23.8042C2.66675 25.0917 3.71414 26.1391 5.00165 26.1391H8.5711V8.44087H5.00165Z" fill="#808080"/>
<path d="M5.00165 5.33331C3.71415 5.33331 2.66675 6.38071 2.66675 7.66822C2.66675 8.95573 3.71415 10.0031 5.00165 10.0031H25.7919V5.33331H5.00165Z" fill="#4D4D4D"/>
<path d="M15.1152 5.33331H25.7919V10.0031H15.1152V5.33331Z" fill="#333333"/>
<path d="M7.00903 10.0031H27.5628V26.1391H7.00903V10.0031Z" fill="#666666"/>
<path d="M15.1152 10.0031H27.5627V26.1391H15.1152V10.0031Z" fill="#4D4D4D"/>
<path d="M24.311 13.7621C22.3658 13.7621 20.7832 15.3447 20.7832 17.2899C20.7832 19.2352 22.3658 20.8177 24.311 20.8177H29.3335V13.7621H24.311Z" fill="#4D4D4D"/>
<path d="M24.311 13.7621C22.3658 13.7621 20.7832 15.3447 20.7832 17.2899C20.7832 19.2352 22.3658 20.8177 24.311 20.8177H29.3335V13.7621H24.311Z" fill="#333333"/>
<path d="M23.689 16.5089H25.4598V18.071H23.689V16.5089Z" fill="#FFDB0C"/>
<path d="M23.689 16.5089H25.4598V18.071H23.689V16.5089Z" fill="#FBBF00"/>
<path d="M17.5044 16.883C17.7329 16.5302 17.8663 16.1104 17.8663 15.6597C17.8663 14.5124 17.0054 13.563 15.8957 13.422V12.459H14.3335V13.4032H12.1453V14.9654H13.0349V19.6146H12.1453V21.1768H14.3335V22.1211H15.8957V21.1768H15.9997C17.3294 21.1768 18.4112 20.095 18.4112 18.7654C18.4112 18.0045 18.0566 17.3253 17.5044 16.883ZM15.6098 14.9654C15.9926 14.9654 16.3041 15.2768 16.3041 15.6597C16.3041 16.0425 15.9926 16.354 15.6098 16.354H14.5971V14.9654H15.6098V14.9654ZM15.9997 17.9161C16.468 17.9161 16.849 18.2971 16.849 18.7654C16.849 19.2337 16.468 19.6146 15.9997 19.6146H14.5971V17.9161H15.9997V17.9161Z" fill="#FDE888"/>
<path d="M17.5045 16.8829C17.733 16.5302 17.8664 16.1103 17.8664 15.6596C17.8664 14.5124 17.0055 13.563 15.8959 13.422V12.459H15.1152V14.9654H15.6099C15.9928 14.9654 16.3042 15.2769 16.3042 15.6597C16.3042 16.0425 15.9928 16.354 15.6099 16.354H15.1152V17.9162H15.9999C16.4681 17.9162 16.8491 18.2971 16.8491 18.7654C16.8491 19.2337 16.4681 19.6147 15.9999 19.6147H15.1152V22.1211H15.8959V21.1769H15.9999C17.3295 21.1769 18.4113 20.0951 18.4113 18.7654C18.4113 18.0044 18.0567 17.3253 17.5045 16.8829Z" fill="#FFDB0C"/>
</svg>
